# xmcd
#
# Track frame offsets:
#	150
#	17473
#	30884
#	49087
#	65327
#	78683
#	95853
#	114900
#	136197
#	155735
#	170099
#	184281
#	201471
#	212665
#
# Disc length: 3063 seconds
#
# Revision: 1
# Processed by: cddbd v1.5.1PL2 Copyright (c) Steve Scherf et al.
# Submitted via: audiograbber 1.83.01
#
DISCID=c20bf50e
DTITLE=Star Disc - SD097
DYEAR=1900
DGENRE=Country
TTITLE0=Dixie Chicks, The - Long Time Gone
TTITLE1=Brooks, Garth - Thicker Than Blood
TTITLE2=Jackson, Alan - Work In Progress
TTITLE3=Rascal Flatts - These Days
TTITLE4=Denny, Kevin - Cadillac Tears
TTITLE5=Azar, Steve - My Heart Wants To Run
TTITLE6=Montgomery Gentry - My Town
TTITLE7=Cochran, Tammy - Life Happened
TTITLE8=Shane Steiner, Tommy - Tell Me Where It Hurts
TTITLE9=Steele, Jeffrey - Good To Go
TTITLE10=Heatherly, Eric - The Last Man Committed
TTITLE11=Alabama - I'm In The Mood
TTITLE12=Yoakum, Dwight - Sitting Pretty
TTITLE13=Herndon, Ty - A Few Short Years
EXTD=
EXTT0=
EXTT1=
EXTT2=
EXTT3=
EXTT4=
EXTT5=
EXTT6=
EXTT7=
EXTT8=
EXTT9=
EXTT10=
EXTT11=
EXTT12=
EXTT13=
PLAYORDER=
